<?xml version="1.0" standalone="no"?><!-- Generator: Gravit.io --><svg xmlns="http://www.w3.org/2000/svg" xmlns:xlink="http://www.w3.org/1999/xlink" style="isolation:isolate" viewBox="0 0 512 512" width="512" height="512"><defs><clipPath id="_clipPath_iAayIEDw0IDCt0jD4bUBIT9Vjln60HcY"><rect width="512" height="512"/></clipPath></defs><g clip-path="url(#_clipPath_iAayIEDw0IDCt0jD4bUBIT9Vjln60HcY)"><path d=" M 256 64 C 149.971 64 64 152.2 64 260.886 C 64 347.886 119.029 421.6 195.314 447.657 C 196.514 447.914 197.543 448 198.571 448 C 205.686 448 208.429 442.771 208.429 438.229 C 208.429 433.514 208.257 421.171 208.171 404.714 C 200.971 406.343 194.543 407.029 188.8 407.029 C 151.857 407.029 143.457 378.314 143.457 378.314 C 134.714 355.6 122.114 349.514 122.114 349.514 C 105.4 337.771 122.029 337.429 123.314 337.429 L 123.4 337.429 C 142.686 339.143 152.8 357.829 152.8 357.829 C 162.4 374.629 175.257 379.343 186.743 379.343 C 195.743 379.343 203.886 376.429 208.686 374.2 C 210.4 361.514 215.371 352.857 220.857 347.886 C 178.257 342.914 133.429 326.029 133.429 250.6 C 133.429 229.086 140.886 211.514 153.143 197.8 C 151.171 192.829 144.571 172.771 155.029 145.686 C 155.029 145.686 156.4 145.257 159.314 145.257 C 166.257 145.257 181.943 147.914 207.829 165.914 C 223.171 161.543 239.543 159.4 255.914 159.314 C 272.2 159.4 288.657 161.543 304 165.914 C 329.886 147.914 345.571 145.257 352.514 145.257 C 355.429 145.257 356.8 145.686 356.8 145.686 C 367.257 172.771 360.657 192.829 358.686 197.8 C 370.943 211.6 378.4 229.171 378.4 250.6 C 378.4 326.2 333.486 342.829 290.714 347.714 C 297.571 353.8 303.743 365.8 303.743 384.143 C 303.743 410.457 303.486 431.714 303.486 438.143 C 303.486 442.771 306.143 448 313.257 448 C 314.286 448 315.486 447.914 316.686 447.657 C 393.057 421.6 448 347.8 448 260.886 C 448 152.2 362.029 64 256 64 Z " fill="rgb(0,0,0)"/></g></svg>