<svg xmlns="http://www.w3.org/2000/svg" viewBox="0 0 512 512">
  <linearGradient id="outer" gradientUnits="userSpaceOnUse" x1="-46.0041"
                  y1="634.1208" x2="-32.9334" y2="647.1917"
                  gradientTransform="matrix(32 0 0 -32 1519 20757)">
    <stop offset="0" style="stop-color:#FFC107"/>
    <stop offset="0.507" style="stop-color:#F44336"/>
    <stop offset="0.99" style="stop-color:#9C27B0"/>
  </linearGradient>
  <path
    fill="url(#outer)"
    d="M336 96c21.2 0 41.3 8.4 56.5 23.5S416 154.8 416 176v160c0 21.2-8.4 41.3-23.5 56.5S357.2 416 336 416H176c-21.2 0-41.3-8.4-56.5-23.5S96 357.2 96 336V176c0-21.2 8.4-41.3 23.5-56.5S154.8 96 176 96h160m0-32H176c-61.6 0-112 50.4-112 112v160c0 61.6 50.4 112 112 112h160c61.6 0 112-50.4 112-112V176c0-61.6-50.4-112-112-112z"/>

  <linearGradient id="inner" gradientUnits="userSpaceOnUse" x1="-42.2971"
                  y1="637.8279" x2="-36.6404" y2="643.4846"
                  gradientTransform="matrix(32 0 0 -32 1519 20757)">
    <stop offset="0" style="stop-color:#FFC107"/>
    <stop offset="0.507" style="stop-color:#F44336"/>
    <stop offset="0.99" style="stop-color:#9C27B0"/>
  </linearGradient>
  <path
    fill="url(#inner)"
    d="M360 176c-13.3 0-24-10.7-24-24s10.7-24 24-24c13.2 0 24 10.7 24 24s-10.8 24-24 24zM256 192c35.3 0 64 28.7 64 64s-28.7 64-64 64-64-28.7-64-64 28.7-64 64-64m0-32c-53 0-96 43-96 96s43 96 96 96 96-43 96-96-43-96-96-96z"/>
</svg>
